<?xml version="1.0" encoding="UTF-8" standalone="no"?>
<!-- Created with Inkscape (http://www.inkscape.org/) -->

<svg
   width="111.56869mm"
   height="148.70615mm"
   viewBox="-43 -10 111.56869 148.70615"
   version="1.1"
   id="svg1"
   inkscape:version="1.3.2 (091e20e, 2023-11-25)"
   sodipodi:docname="chicken_anim_end.svg"
   inkscape:export-filename="../../../Documents/Projects/VSCodeProjects/svg_morph/chicken_anim_end.svg"
   inkscape:export-xdpi="96"
   inkscape:export-ydpi="96"
   xmlns:inkscape="http://www.inkscape.org/namespaces/inkscape"
   xmlns:sodipodi="http://sodipodi.sourceforge.net/DTD/sodipodi-0.dtd"
   xmlns="http://www.w3.org/2000/svg"
   xmlns:svg="http://www.w3.org/2000/svg">
  <sodipodi:namedview
     id="namedview1"
     pagecolor="#505050"
     bordercolor="#eeeeee"
     borderopacity="1"
     inkscape:showpageshadow="0"
     inkscape:pageopacity="0"
     inkscape:pagecheckerboard="0"
     inkscape:deskcolor="#505050"
     inkscape:document-units="mm"
     inkscape:zoom="1.1660398"
     inkscape:cx="343.47027"
     inkscape:cy="397.9281"
     inkscape:window-width="1440"
     inkscape:window-height="847"
     inkscape:window-x="3136"
     inkscape:window-y="74"
     inkscape:window-maximized="0"
     inkscape:current-layer="layer1" />
  <defs
     id="defs1" />
  <g
     inkscape:label="Ebene 1"
     inkscape:groupmode="layer"
     id="layer1"
     transform="translate(-101.8652,-56.773859)">
    <path
       id="rect1"
       style="fill:#ffffff;stroke-width:0.274882"
       inkscape:label="Body"
       d="m 99.760337,61.555671 c 16.100443,-3.614628 28.651053,9.430747 36.139003,27.384465 7.48796,17.953714 10.66466,41.239914 10.66466,59.987804 0,18.74789 -13.28438,32.14953 -29.78559,32.14953 -16.50122,0 -24.566713,-11.44491 -24.793621,-30.33427 C 91.757881,131.85384 85.17756,111.2331 80.866315,94.839735 76.55507,78.446366 82.578394,65.413101 99.760337,61.555671 Z"
       sodipodi:nodetypes="szzszzs" />
    <ellipse
       style="fill:#f3f3f3;fill-opacity:1;stroke-width:0.264583"
       id="path5-6-1"
       cx="93.089127"
       cy="172.7135"
       rx="24.755762"
       ry="21.185219"
       inkscape:label="BodyL" />
    <ellipse
       style="fill:#f6f6f6;fill-opacity:1;stroke-width:0.264583"
       id="path5"
       cx="145.67813"
       cy="173.52838"
       rx="24.755762"
       ry="21.185219"
       inkscape:label="BodyR" />
    <ellipse
       style="fill:#e9e9e9;fill-opacity:1;stroke-width:0.264583"
       id="path5-6"
       cx="118.55464"
       cy="174.29478"
       rx="24.755762"
       ry="21.185219"
       inkscape:label="BodyM" />
    <path
       style="fill:#ff0000;fill-opacity:1;stroke-width:0.264583"
       d="m 96.053483,114.95845 c -1.397274,17.93167 -17.035968,21.48456 -18.200362,16.12835 -1.164395,-5.35621 3.478851,-26.04182 4.693398,-28.47091 1.630152,-3.260302 5.472649,-8.84939 9.548026,-8.61651 4.075378,0.232879 5.356208,3.02741 3.958938,20.95907 z"
       id="path4"
       sodipodi:nodetypes="zsszz"
       inkscape:label="LowerRedThingy" />
    <path
       id="rect2"
       style="fill:#ffc500;stroke-width:0.285819"
       inkscape:label="MouthUpper"
       d="m 63.669284,93.275684 c 7.380455,-2.219649 26.372034,-1.215402 26.372034,-1.215402 3.264515,0.689865 6.022765,2.686153 6.022765,6.022764 v 10e-7 c 0,3.336613 -2.854408,7.068943 -6.022765,6.022763 0,0 -15.342472,-1.01576 -23.873109,0.8253 -8.530637,1.84105 -9.87938,-9.435777 -2.498925,-11.655426 z"
       sodipodi:nodetypes="zsssszz" />
    <path
       style="fill:#ff0000;fill-opacity:1;stroke-width:0.264583"
       d="m 81.179753,56.010632 c 5.309445,-3.335912 8.074906,-0.923116 8.074906,-0.923116 0,0 -3.337764,-4.917442 2.748806,-6.353986 3.164752,-0.746941 4.956893,4.47467 4.956893,4.47467 0,0 -2.697795,-7.082144 6.582562,-6.386218 4.41691,0.331221 4.10298,6.567193 4.10298,6.567193 0,0 3.98412,-8.747217 9.54408,-4.865324 3.3207,2.318472 3.21128,8.342081 3.21128,8.342081 0,0 8.6994,-6.183547 10.28906,0.965961 0.94891,4.267742 -5.3467,11.163802 -10.69953,11.666957 -2.67642,0.251579 -6.54606,-2.490836 -13.80309,-3.504461 -7.257022,-1.013625 -15.75717,4.620658 -20.65417,1.134723 -4.697233,-3.34373 -5.810374,-8.722226 -4.353777,-11.11848 z"
       id="path3"
       sodipodi:nodetypes="ccscscscssssc"
       inkscape:label="UpperRedThingy" />
    <path
       id="path2"
       style="display:inline;stroke-width:0.264583"
       inkscape:label="Eye1"
       d="m 107.61328,77.411641 c 3.49915,3.41211 8.26197,5.232011 4.76006,8.823235 -3.50201,3.591117 -5.54696,-0.575096 -9.046,-3.987308 -3.499147,-3.412109 -7.127427,-4.77819 -3.625517,-8.369413 3.502007,-3.591119 4.412417,0.121276 7.911457,3.533486 z"
       sodipodi:nodetypes="ccccc" />
    <path
       id="path2-2"
       style="display:inline;stroke-width:0.264583"
       inkscape:label="Eye2"
       d="m 112.27744,73.457316 c 3.55119,3.357916 -0.22121,4.269548 -3.66749,7.914184 -3.44628,3.644633 -5.26142,8.642123 -8.812597,5.284208 -3.55118,-3.357913 1.128827,-5.177169 4.575107,-8.821807 3.44628,-3.644641 4.35379,-7.734505 7.90498,-4.376585 z"
       sodipodi:nodetypes="sssss" />
    <path
       id="rect2-8"
       style="fill:#ffc500;stroke-width:0.272607"
       inkscape:label="MouthLower"
       d="m 86.16831,95.038842 c 1.385485,-0.969545 7.636794,-1.72398 9.117557,0.721568 1.480763,2.445548 1.505313,5.8845 -1.569262,7.88855 -3.074579,2.00405 -18.151176,10.76533 -21.24304,12.6242 -3.091864,1.85887 -6.601813,1.36725 -8.716436,-1.12269 -2.114624,-2.48994 -0.182944,-6.21567 3.414413,-8.61059 3.597357,-2.39492 17.611284,-10.531492 18.996768,-11.501038 z"
       sodipodi:nodetypes="ccccccc" />
  </g>
</svg>
